HIERARCHY
ROOT SpineBase
{
  OFFSET 0.000000 0.000000 0.000000
  CHANNELS 6 Xposition Yposition Zposition Zrotation Xrotation Yrotation
  JOINT SpineMid
  {
    OFFSET 0.000000 26.940427 0.000000
    CHANNELS 3 Zrotation Xrotation Yrotation
    JOINT SpineShoulder
    {
      OFFSET 0.062622 20.020299 -0.785191
      CHANNELS 3 Zrotation Xrotation Yrotation
      JOINT Neck
      {
        OFFSET 0.031647 6.664676 -0.592714
        CHANNELS 3 Zrotation Xrotation Yrotation
        JOINT Head
        {
          OFFSET 2.446974 12.140447 0.848727
          CHANNELS 3 Zrotation Xrotation Yrotation
          End Site
          {
            OFFSET 0 0 0
          }
        }
      }
      JOINT ShoulderLeft
      {
        OFFSET -12.435663 -1.901940 -8.260710
        CHANNELS 3 Zrotation Xrotation Yrotation
        JOINT ElbowLeft
        {
          OFFSET -4.126130 -22.221226 -3.804874
          CHANNELS 3 Zrotation Xrotation Yrotation
          JOINT WristLeft
          {
            OFFSET 3.106662 -21.087849 -5.675574
            CHANNELS 3 Zrotation Xrotation Yrotation
            JOINT HandLeft
            {
              OFFSET 0.437787 -4.883276 0.280828
              CHANNELS 3 Zrotation Xrotation Yrotation
              JOINT HandTipLeft
              {
                OFFSET 1.220236 -6.419122 -0.075562
                CHANNELS 3 Zrotation Xrotation Yrotation
                End Site
                {
                  OFFSET 0 0 0
                }
              }
              JOINT ThumbLeft
              {
                OFFSET -2.637637 -1.192458 -2.184813
                CHANNELS 3 Zrotation Xrotation Yrotation
                End Site
                {
                  OFFSET 0 0 0
                }
              }
            }
          }
        }
      }
      JOINT ShoulderRight
      {
        OFFSET 10.902770 -2.905266 3.347405
        CHANNELS 3 Zrotation Xrotation Yrotation
        JOINT ElbowRight
        {
          OFFSET 2.110890 -27.888073 3.368239
          CHANNELS 3 Zrotation Xrotation Yrotation
          JOINT WristRight
          {
            OFFSET 2.280030 -20.459548 -6.592050
            CHANNELS 3 Zrotation Xrotation Yrotation
            JOINT HandRight
            {
              OFFSET -1.947032 -4.051348 -0.185402
              CHANNELS 3 Zrotation Xrotation Yrotation
              JOINT HandTipRight
              {
                OFFSET 0.212329 -4.973466 -0.898775
                CHANNELS 3 Zrotation Xrotation Yrotation
                End Site
                {
                  OFFSET 0 0 0
                }
              }
              JOINT ThumbRight
              {
                OFFSET -2.733455 1.823965 -2.334967
                CHANNELS 3 Zrotation Xrotation Yrotation
                End Site
                {
                  OFFSET 0 0 0
                }
              }
            }
          }
        }
      }
    }
  }
  JOINT HipLeft
  {
    OFFSET -5.636612 1.018493 -5.479612
    CHANNELS 3 Zrotation Xrotation Yrotation
    JOINT KneeLeft
    {
      OFFSET -4.750452 -28.748035 -3.134308
      CHANNELS 3 Zrotation Xrotation Yrotation
      JOINT AnkleLeft
      {
        OFFSET -3.456435 -31.319356 4.235158
        CHANNELS 3 Zrotation Xrotation Yrotation
        JOINT FootLeft
        {
          OFFSET 5.027511 -7.098518 -0.119965
          CHANNELS 3 Zrotation Xrotation Yrotation
          End Site
          {
            OFFSET 0 0 0
          }
        }
      }
    }
  }
  JOINT HipRight
  {
    OFFSET 5.142720 0.809820 -0.698255
    CHANNELS 3 Zrotation Xrotation Yrotation
    JOINT KneeRight
    {
      OFFSET -3.054837 -29.314902 -0.359879
      CHANNELS 3 Zrotation Xrotation Yrotation
      JOINT AnkleRight
      {
        OFFSET -5.622882 -33.804190 2.619099
        CHANNELS 3 Zrotation Xrotation Yrotation
        JOINT FootRight
        {
          OFFSET 3.588901 -2.465691 -8.530744
          CHANNELS 3 Zrotation Xrotation Yrotation
          End Site
          {
            OFFSET 0 0 0
          }
        }
      }
    }
  }
}
MOTION
Frames: 8
Frame Time: 0.033333
25.195259 67.738095 364.621357 -0.000000 0.000000 -23.920501 -0.000000 0.000000 23.920501 -0.000000 0.000000 0.000000 -0.000000 0.000000 0.000000 0.000000 0.000000 0.000000 -0.000000 0.000000 0.000000 -0.000000 0.000000 0.000000 -0.000000 0.000000 0.000000 -0.000000 0.000000 0.000000 0.000000 0.000000 0.000000 0.000000 0.000000 0.000000 -0.000000 0.000000 0.000000 -0.000000 0.000000 0.000000 -0.000000 0.000000 0.000000 -0.000000 0.000000 0.000000 0.000000 0.000000 0.000000 0.000000 0.000000 0.000000 -0.000000 0.000000 23.920501 -0.000000 0.000000 0.000000 -0.000000 0.000000 0.000000 0.000000 0.000000 0.000000 -0.000000 0.000000 23.920501 -0.000000 0.000000 0.000000 -0.000000 0.000000 0.000000 0.000000 0.000000 0.000000
25.182004 67.700090 364.735942 -0.207136 -0.257442 -23.803996 0.085611 0.319143 23.803292 -0.000000 0.000000 0.000000 -0.000000 0.000000 0.000000 0.000000 0.000000 0.000000 -0.000000 0.000000 0.000000 -0.000000 0.000000 0.000000 2.561682 1.065910 0.218750 -3.657439 -0.441860 -0.151789 0.000000 0.000000 0.000000 0.000000 0.000000 0.000000 -0.000000 0.000000 0.000000 -0.000000 0.000000 0.000000 0.851074 -1.157262 0.527958 -3.513368 1.147560 0.024891 0.000000 0.000000 0.000000 0.000000 0.000000 0.000000 0.085611 0.319143 23.803292 0.921873 -0.423565 0.174884 -1.030171 5.954220 3.756411 0.000000 0.000000 0.000000 0.085611 0.319143 23.803292 -0.000000 0.000000 0.000000 -3.066035 -6.136843 1.940278 0.000000 0.000000 0.000000
25.181097 67.666951 364.834614 -0.373585 -0.478716 -23.699346 0.149678 0.588498 23.697017 -0.000000 0.000000 0.000000 -0.000000 0.000000 0.000000 0.000000 0.000000 0.000000 -0.000000 0.000000 0.000000 -1.115030 -0.366904 0.243043 5.373554 2.217138 0.065649 -6.082541 -0.648927 -0.273451 0.000000 0.000000 0.000000 0.000000 0.000000 0.000000 -0.000000 0.000000 0.000000 0.618898 -1.367159 -0.345510 0.787566 -0.385096 1.133706 -6.467420 1.346491 0.274655 0.000000 0.000000 0.000000 0.000000 0.000000 0.000000 0.149678 0.588498 23.697017 1.695036 -0.760957 0.324704 -2.199906 11.727646 7.547939 0.000000 0.000000 0.000000 0.216249 2.035353 23.552260 -0.639280 -1.299696 0.135981 -6.271495 -12.841390 4.223730 0.000000 0.000000 0.000000
25.192537 67.638679 364.917373 -0.499435 -0.663918 -23.605833 0.191812 0.808345 23.601586 -0.000000 0.000000 0.000000 -0.000000 0.000000 0.000000 0.000000 0.000000 0.000000 -0.000000 0.000000 0.000000 -1.333753 -0.511446 0.278494 6.607137 2.970720 0.074665 -7.452049 -0.706541 -0.344613 0.000000 0.000000 0.000000 0.000000 0.000000 0.000000 -0.301169 1.161053 0.054640 1.304074 -3.365940 -0.581170 0.675279 0.363165 1.371267 -8.775071 0.587013 0.594620 0.000000 0.000000 0.000000 0.000000 0.000000 0.000000 0.191812 0.808345 23.601586 2.331401 -1.019421 0.449024 -3.459230 16.960739 11.160953 0.000000 0.000000 0.000000 0.218397 2.830533 23.398377 -0.827743 -1.845272 0.189034 -9.264025 -19.424338 6.840884 0.000000 0.000000 0.000000
25.216324 67.615272 364.984219 -0.584748 -0.813130 -23.522872 -0.103727 0.125439 23.497314 -0.020118 0.108726 -0.031795 0.649335 0.548606 0.052058 0.000000 0.000000 0.000000 0.649335 0.548606 0.052058 -1.318146 -0.625713 0.256212 7.029033 3.560327 0.113620 -7.847947 -0.668203 -0.356624 0.000000 0.000000 0.000000 0.000000 0.000000 0.000000 0.169505 2.418181 0.148522 1.915670 -5.017033 -0.810494 0.234107 1.714908 1.404735 -10.337808 -1.135285 0.888303 0.000000 0.000000 0.000000 0.000000 0.000000 0.000000 0.211673 0.978921 23.516915 2.840240 -1.204406 0.547649 -4.683901 21.361514 14.368653 0.000000 0.000000 0.000000 0.141324 3.433895 23.270705 -0.905743 -2.282958 0.230871 -11.630879 -24.986440 9.801603 0.000000 0.000000 0.000000
25.252458 67.596731 365.035153 -0.629566 -0.926419 -23.450017 -0.090063 0.151118 23.422973 0.022997 0.145217 -0.029170 0.628425 0.607317 0.049699 0.000000 0.000000 0.000000 0.628425 0.607317 0.049699 -1.070302 -0.708402 0.177629 6.676227 4.013391 0.197251 -7.281137 -0.566312 -0.304345 0.000000 0.000000 0.000000 0.000000 0.000000 0.000000 -0.066600 3.341616 0.197563 2.615190 -6.930097 -1.043552 -0.550811 3.704196 1.236314 -11.063026 -3.826580 1.128884 0.000000 0.000000 0.000000 0.000000 0.000000 0.000000 0.208967 1.100413 23.442921 3.228461 -1.319750 0.620490 -5.710037 24.756109 16.964642 0.000000 0.000000 0.000000 -0.016796 3.820299 23.172290 -0.662295 -3.423078 0.425422 -13.235982 -27.885645 13.142999 0.000000 0.000000 0.000000
25.308528 67.575471 365.085053 -0.657812 -1.013956 -23.388888 -0.047971 0.181558 23.361860 0.079505 0.188212 -0.023435 1.192997 1.250897 -0.135891 0.000000 0.000000 0.000000 0.549656 0.640537 0.042791 -0.155517 -0.817315 -0.079832 3.964415 4.409209 0.444300 -3.593397 -0.815027 -0.132225 0.000000 0.000000 0.000000 0.000000 0.000000 0.000000 -0.500075 4.791089 0.281780 3.601146 -9.872959 -1.318042 -1.789707 6.027014 1.307391 -8.922104 -8.695750 0.681695 0.000000 0.000000 0.000000 0.000000 0.000000 0.000000 0.201329 1.191743 23.380973 3.471861 -1.270641 0.649563 -5.532999 24.702313 16.785814 0.000000 0.000000 0.000000 -0.285553 3.845727 23.120834 -0.396274 -3.461201 0.431532 -13.534856 -29.383799 20.916775 0.000000 0.000000 0.000000
25.363449 67.576000 365.094257 -0.624380 -1.040451 -23.301157 0.019308 0.210738 23.277704 0.523009 0.854701 0.013942 0.700961 0.594756 -0.172670 0.000000 0.000000 0.000000 -0.000000 0.000000 0.000000 0.647803 -0.800688 -0.288085 1.554911 4.664483 0.665795 -0.880176 -0.296578 0.158394 0.000000 0.000000 0.000000 0.000000 0.000000 0.000000 -1.413643 5.495951 0.315550 4.638548 -12.825596 -1.545418 -3.855635 11.157863 0.278565 -6.606919 -16.256290 1.463217 0.000000 0.000000 0.000000 0.000000 0.000000 0.000000 0.161961 1.202547 23.293788 3.542595 -1.192124 0.648931 -5.319147 27.512702 18.834265 0.000000 0.000000 0.000000 -0.606747 3.943321 23.029615 -0.164319 -3.713263 0.464519 -11.517251 -21.197644 24.796058 0.000000 0.000000 0.000000
